<?xml version="1.0" standalone="no"?>
<!DOCTYPE svg PUBLIC "-//W3C//DTD SVG 20010904//EN"
 "http://www.w3.org/TR/2001/REC-SVG-20010904/DTD/svg10.dtd">
<svg version="1.0" xmlns="http://www.w3.org/2000/svg"
 width="152.000000pt" height="152.000000pt" viewBox="0 0 152.000000 152.000000"
 preserveAspectRatio="xMidYMid meet">

<g transform="translate(0.000000,152.000000) scale(0.100000,-0.100000)"
fill="#000000" stroke="none">
<path d="M916 1357 c-112 -64 -102 -181 16 -194 106 -12 177 72 133 157 -32
62 -83 75 -149 37z"/>
<path d="M572 1303 c-98 -48 -94 -159 6 -179 42 -8 74 1 111 32 24 20 31 34
31 63 0 34 -20 76 -44 93 -18 13 -69 8 -104 -9z"/>
<path d="M782 990 c-127 -26 -269 -142 -311 -255 -74 -195 -10 -410 141 -475
132 -57 333 -22 397 68 56 81 24 107 -48 39 -60 -56 -108 -69 -159 -41 -33 17
-82 77 -82 99 0 5 26 24 57 40 186 97 300 325 224 448 -39 63 -129 95 -219 77z
m59 -92 c7 -13 10 -49 7 -92 -6 -90 -48 -183 -112 -246 l-46 -44 0 44 c0 114
44 279 87 330 29 36 48 38 64 8z"/>
</g>
</svg>
